<mxfile host="app.diagrams.net" modified="2023-10-21T07:17:42.671Z" agent="Mozilla/5.0 (Windows NT 10.0; Win64; x64) AppleWebKit/537.36 (KHTML, like Gecko) Chrome/118.0.0.0 Safari/537.36" etag="oHjKBk4HbcaHO_-Nyde-" version="22.0.6" type="device">
  <diagram name="PÃ¡gina-1" id="wY3-WIpBnLSalEv3TleI">
    <mxGraphModel dx="1434" dy="782" grid="1" gridSize="10" guides="1" tooltips="1" connect="1" arrows="1" fold="1" page="1" pageScale="1" pageWidth="1169" pageHeight="827" math="0" shadow="0">
      <root>
        <mxCell id="0" />
        <mxCell id="1" parent="0" />
        <mxCell id="Exug02o-3mjedRuLKMfW-1" value="departamento" style="swimlane;fontStyle=0;childLayout=stackLayout;horizontal=1;startSize=26;fillColor=default;horizontalStack=0;resizeParent=1;resizeLast=0;collapsible=1;marginBottom=0;swimlaneFillColor=default;align=center;" vertex="1" parent="1">
          <mxGeometry x="32.5" y="40" width="260" height="78" as="geometry" />
        </mxCell>
        <mxCell id="Exug02o-3mjedRuLKMfW-2" value="id | profesor(id_departamento)" style="shape=partialRectangle;top=0;left=0;right=0;bottom=0;align=left;verticalAlign=top;spacingTop=-2;fillColor=none;spacingLeft=64;spacingRight=4;overflow=hidden;rotatable=0;points=[[0,0.5],[1,0.5]];portConstraint=eastwest;dropTarget=0;" vertex="1" parent="Exug02o-3mjedRuLKMfW-1">
          <mxGeometry y="26" width="260" height="26" as="geometry" />
        </mxCell>
        <mxCell id="Exug02o-3mjedRuLKMfW-3" value="FK" style="shape=partialRectangle;top=0;left=0;bottom=0;fillColor=none;align=left;verticalAlign=middle;spacingLeft=4;spacingRight=4;overflow=hidden;rotatable=180;points=[];portConstraint=eastwest;part=1;" vertex="1" connectable="0" parent="Exug02o-3mjedRuLKMfW-2">
          <mxGeometry width="54" height="26" as="geometry" />
        </mxCell>
        <mxCell id="Exug02o-3mjedRuLKMfW-4" value="nombre" style="shape=partialRectangle;top=0;left=0;right=0;bottom=0;align=left;verticalAlign=top;spacingTop=-2;fillColor=none;spacingLeft=64;spacingRight=4;overflow=hidden;rotatable=0;points=[[0,0.5],[1,0.5]];portConstraint=eastwest;dropTarget=0;" vertex="1" parent="Exug02o-3mjedRuLKMfW-1">
          <mxGeometry y="52" width="260" height="26" as="geometry" />
        </mxCell>
        <mxCell id="Exug02o-3mjedRuLKMfW-5" value="" style="shape=partialRectangle;top=0;left=0;bottom=0;fillColor=none;align=left;verticalAlign=middle;spacingLeft=4;spacingRight=4;overflow=hidden;rotatable=180;points=[];portConstraint=eastwest;part=1;" vertex="1" connectable="0" parent="Exug02o-3mjedRuLKMfW-4">
          <mxGeometry width="54" height="26" as="geometry" />
        </mxCell>
        <mxCell id="Exug02o-3mjedRuLKMfW-6" value="persona" style="swimlane;fontStyle=0;childLayout=stackLayout;horizontal=1;startSize=26;fillColor=default;horizontalStack=0;resizeParent=1;resizeLast=0;collapsible=1;marginBottom=0;swimlaneFillColor=default;align=center;" vertex="1" parent="1">
          <mxGeometry x="32.5" y="144" width="480" height="312" as="geometry" />
        </mxCell>
        <mxCell id="Exug02o-3mjedRuLKMfW-7" value="id | profesor(id_profesor) | alumno_se_matricula_asignatura(id_alumno)" style="shape=partialRectangle;top=0;left=0;right=0;bottom=0;align=left;verticalAlign=top;spacingTop=-2;fillColor=none;spacingLeft=64;spacingRight=4;overflow=hidden;rotatable=0;points=[[0,0.5],[1,0.5]];portConstraint=eastwest;dropTarget=0;" vertex="1" parent="Exug02o-3mjedRuLKMfW-6">
          <mxGeometry y="26" width="480" height="26" as="geometry" />
        </mxCell>
        <mxCell id="Exug02o-3mjedRuLKMfW-8" value="FK" style="shape=partialRectangle;top=0;left=0;bottom=0;fillColor=none;align=left;verticalAlign=middle;spacingLeft=4;spacingRight=4;overflow=hidden;rotatable=180;points=[];portConstraint=eastwest;part=1;" vertex="1" connectable="0" parent="Exug02o-3mjedRuLKMfW-7">
          <mxGeometry width="54" height="26" as="geometry" />
        </mxCell>
        <mxCell id="Exug02o-3mjedRuLKMfW-9" value="nif" style="shape=partialRectangle;top=0;left=0;right=0;bottom=0;align=left;verticalAlign=top;spacingTop=-2;fillColor=none;spacingLeft=64;spacingRight=4;overflow=hidden;rotatable=0;points=[[0,0.5],[1,0.5]];portConstraint=eastwest;dropTarget=0;" vertex="1" parent="Exug02o-3mjedRuLKMfW-6">
          <mxGeometry y="52" width="480" height="26" as="geometry" />
        </mxCell>
        <mxCell id="Exug02o-3mjedRuLKMfW-10" value="" style="shape=partialRectangle;top=0;left=0;bottom=0;fillColor=none;align=left;verticalAlign=middle;spacingLeft=4;spacingRight=4;overflow=hidden;rotatable=180;points=[];portConstraint=eastwest;part=1;" vertex="1" connectable="0" parent="Exug02o-3mjedRuLKMfW-9">
          <mxGeometry width="54" height="26" as="geometry" />
        </mxCell>
        <mxCell id="Exug02o-3mjedRuLKMfW-11" value="nombre" style="shape=partialRectangle;top=0;left=0;right=0;bottom=0;align=left;verticalAlign=top;spacingTop=-2;fillColor=none;spacingLeft=64;spacingRight=4;overflow=hidden;rotatable=0;points=[[0,0.5],[1,0.5]];portConstraint=eastwest;dropTarget=0;" vertex="1" parent="Exug02o-3mjedRuLKMfW-6">
          <mxGeometry y="78" width="480" height="26" as="geometry" />
        </mxCell>
        <mxCell id="Exug02o-3mjedRuLKMfW-12" value="" style="shape=partialRectangle;top=0;left=0;bottom=0;fillColor=none;align=left;verticalAlign=middle;spacingLeft=4;spacingRight=4;overflow=hidden;rotatable=180;points=[];portConstraint=eastwest;part=1;" vertex="1" connectable="0" parent="Exug02o-3mjedRuLKMfW-11">
          <mxGeometry width="54" height="26" as="geometry" />
        </mxCell>
        <mxCell id="Exug02o-3mjedRuLKMfW-13" value="apellido1" style="shape=partialRectangle;top=0;left=0;right=0;bottom=0;align=left;verticalAlign=top;spacingTop=-2;fillColor=none;spacingLeft=64;spacingRight=4;overflow=hidden;rotatable=0;points=[[0,0.5],[1,0.5]];portConstraint=eastwest;dropTarget=0;" vertex="1" parent="Exug02o-3mjedRuLKMfW-6">
          <mxGeometry y="104" width="480" height="26" as="geometry" />
        </mxCell>
        <mxCell id="Exug02o-3mjedRuLKMfW-14" value="" style="shape=partialRectangle;top=0;left=0;bottom=0;fillColor=none;align=left;verticalAlign=middle;spacingLeft=4;spacingRight=4;overflow=hidden;rotatable=180;points=[];portConstraint=eastwest;part=1;" vertex="1" connectable="0" parent="Exug02o-3mjedRuLKMfW-13">
          <mxGeometry width="54" height="26" as="geometry" />
        </mxCell>
        <mxCell id="Exug02o-3mjedRuLKMfW-15" value="apellido2" style="shape=partialRectangle;top=0;left=0;right=0;bottom=0;align=left;verticalAlign=top;spacingTop=-2;fillColor=none;spacingLeft=64;spacingRight=4;overflow=hidden;rotatable=0;points=[[0,0.5],[1,0.5]];portConstraint=eastwest;dropTarget=0;" vertex="1" parent="Exug02o-3mjedRuLKMfW-6">
          <mxGeometry y="130" width="480" height="26" as="geometry" />
        </mxCell>
        <mxCell id="Exug02o-3mjedRuLKMfW-16" value="" style="shape=partialRectangle;top=0;left=0;bottom=0;fillColor=none;align=left;verticalAlign=middle;spacingLeft=4;spacingRight=4;overflow=hidden;rotatable=180;points=[];portConstraint=eastwest;part=1;" vertex="1" connectable="0" parent="Exug02o-3mjedRuLKMfW-15">
          <mxGeometry width="54" height="26" as="geometry" />
        </mxCell>
        <mxCell id="Exug02o-3mjedRuLKMfW-17" value="ciudad" style="shape=partialRectangle;top=0;left=0;right=0;bottom=0;align=left;verticalAlign=top;spacingTop=-2;fillColor=none;spacingLeft=64;spacingRight=4;overflow=hidden;rotatable=0;points=[[0,0.5],[1,0.5]];portConstraint=eastwest;dropTarget=0;" vertex="1" parent="Exug02o-3mjedRuLKMfW-6">
          <mxGeometry y="156" width="480" height="26" as="geometry" />
        </mxCell>
        <mxCell id="Exug02o-3mjedRuLKMfW-18" value="" style="shape=partialRectangle;top=0;left=0;bottom=0;fillColor=none;align=left;verticalAlign=middle;spacingLeft=4;spacingRight=4;overflow=hidden;rotatable=180;points=[];portConstraint=eastwest;part=1;" vertex="1" connectable="0" parent="Exug02o-3mjedRuLKMfW-17">
          <mxGeometry width="54" height="26" as="geometry" />
        </mxCell>
        <mxCell id="Exug02o-3mjedRuLKMfW-19" value="direccion" style="shape=partialRectangle;top=0;left=0;right=0;bottom=0;align=left;verticalAlign=top;spacingTop=-2;fillColor=none;spacingLeft=64;spacingRight=4;overflow=hidden;rotatable=0;points=[[0,0.5],[1,0.5]];portConstraint=eastwest;dropTarget=0;" vertex="1" parent="Exug02o-3mjedRuLKMfW-6">
          <mxGeometry y="182" width="480" height="26" as="geometry" />
        </mxCell>
        <mxCell id="Exug02o-3mjedRuLKMfW-20" value="" style="shape=partialRectangle;top=0;left=0;bottom=0;fillColor=none;align=left;verticalAlign=middle;spacingLeft=4;spacingRight=4;overflow=hidden;rotatable=180;points=[];portConstraint=eastwest;part=1;" vertex="1" connectable="0" parent="Exug02o-3mjedRuLKMfW-19">
          <mxGeometry width="54" height="26" as="geometry" />
        </mxCell>
        <mxCell id="Exug02o-3mjedRuLKMfW-21" value="telefono" style="shape=partialRectangle;top=0;left=0;right=0;bottom=0;align=left;verticalAlign=top;spacingTop=-2;fillColor=none;spacingLeft=64;spacingRight=4;overflow=hidden;rotatable=0;points=[[0,0.5],[1,0.5]];portConstraint=eastwest;dropTarget=0;" vertex="1" parent="Exug02o-3mjedRuLKMfW-6">
          <mxGeometry y="208" width="480" height="26" as="geometry" />
        </mxCell>
        <mxCell id="Exug02o-3mjedRuLKMfW-22" value="" style="shape=partialRectangle;top=0;left=0;bottom=0;fillColor=none;align=left;verticalAlign=middle;spacingLeft=4;spacingRight=4;overflow=hidden;rotatable=180;points=[];portConstraint=eastwest;part=1;" vertex="1" connectable="0" parent="Exug02o-3mjedRuLKMfW-21">
          <mxGeometry width="54" height="26" as="geometry" />
        </mxCell>
        <mxCell id="Exug02o-3mjedRuLKMfW-23" value="fecha_nacimiento" style="shape=partialRectangle;top=0;left=0;right=0;bottom=0;align=left;verticalAlign=top;spacingTop=-2;fillColor=none;spacingLeft=64;spacingRight=4;overflow=hidden;rotatable=0;points=[[0,0.5],[1,0.5]];portConstraint=eastwest;dropTarget=0;" vertex="1" parent="Exug02o-3mjedRuLKMfW-6">
          <mxGeometry y="234" width="480" height="26" as="geometry" />
        </mxCell>
        <mxCell id="Exug02o-3mjedRuLKMfW-24" value="" style="shape=partialRectangle;top=0;left=0;bottom=0;fillColor=none;align=left;verticalAlign=middle;spacingLeft=4;spacingRight=4;overflow=hidden;rotatable=180;points=[];portConstraint=eastwest;part=1;" vertex="1" connectable="0" parent="Exug02o-3mjedRuLKMfW-23">
          <mxGeometry width="54" height="26" as="geometry" />
        </mxCell>
        <mxCell id="Exug02o-3mjedRuLKMfW-25" value="sexo" style="shape=partialRectangle;top=0;left=0;right=0;bottom=0;align=left;verticalAlign=top;spacingTop=-2;fillColor=none;spacingLeft=64;spacingRight=4;overflow=hidden;rotatable=0;points=[[0,0.5],[1,0.5]];portConstraint=eastwest;dropTarget=0;" vertex="1" parent="Exug02o-3mjedRuLKMfW-6">
          <mxGeometry y="260" width="480" height="26" as="geometry" />
        </mxCell>
        <mxCell id="Exug02o-3mjedRuLKMfW-26" value="" style="shape=partialRectangle;top=0;left=0;bottom=0;fillColor=none;align=left;verticalAlign=middle;spacingLeft=4;spacingRight=4;overflow=hidden;rotatable=180;points=[];portConstraint=eastwest;part=1;" vertex="1" connectable="0" parent="Exug02o-3mjedRuLKMfW-25">
          <mxGeometry width="54" height="26" as="geometry" />
        </mxCell>
        <mxCell id="Exug02o-3mjedRuLKMfW-27" value="tipo" style="shape=partialRectangle;top=0;left=0;right=0;bottom=0;align=left;verticalAlign=top;spacingTop=-2;fillColor=none;spacingLeft=64;spacingRight=4;overflow=hidden;rotatable=0;points=[[0,0.5],[1,0.5]];portConstraint=eastwest;dropTarget=0;" vertex="1" parent="Exug02o-3mjedRuLKMfW-6">
          <mxGeometry y="286" width="480" height="26" as="geometry" />
        </mxCell>
        <mxCell id="Exug02o-3mjedRuLKMfW-28" value="" style="shape=partialRectangle;top=0;left=0;bottom=0;fillColor=none;align=left;verticalAlign=middle;spacingLeft=4;spacingRight=4;overflow=hidden;rotatable=180;points=[];portConstraint=eastwest;part=1;" vertex="1" connectable="0" parent="Exug02o-3mjedRuLKMfW-27">
          <mxGeometry width="54" height="26" as="geometry" />
        </mxCell>
        <mxCell id="Exug02o-3mjedRuLKMfW-29" value="profesor" style="swimlane;fontStyle=0;childLayout=stackLayout;horizontal=1;startSize=26;fillColor=default;horizontalStack=0;resizeParent=1;resizeLast=0;collapsible=1;marginBottom=0;swimlaneFillColor=default;align=center;" vertex="1" parent="1">
          <mxGeometry x="570" y="10" width="450" height="78" as="geometry" />
        </mxCell>
        <mxCell id="Exug02o-3mjedRuLKMfW-30" value="id_profesor | persona(id) | asignatura(FOREIGNKEY(id_profesor )" style="shape=partialRectangle;top=0;left=0;right=0;bottom=0;align=left;verticalAlign=top;spacingTop=-2;fillColor=none;spacingLeft=64;spacingRight=4;overflow=hidden;rotatable=0;points=[[0,0.5],[1,0.5]];portConstraint=eastwest;dropTarget=0;" vertex="1" parent="Exug02o-3mjedRuLKMfW-29">
          <mxGeometry y="26" width="450" height="26" as="geometry" />
        </mxCell>
        <mxCell id="Exug02o-3mjedRuLKMfW-31" value="FK" style="shape=partialRectangle;top=0;left=0;bottom=0;fillColor=none;align=left;verticalAlign=middle;spacingLeft=4;spacingRight=4;overflow=hidden;rotatable=180;points=[];portConstraint=eastwest;part=1;" vertex="1" connectable="0" parent="Exug02o-3mjedRuLKMfW-30">
          <mxGeometry width="54" height="26" as="geometry" />
        </mxCell>
        <mxCell id="Exug02o-3mjedRuLKMfW-32" value="id_departamento | departamento(id)" style="shape=partialRectangle;top=0;left=0;right=0;bottom=0;align=left;verticalAlign=top;spacingTop=-2;fillColor=none;spacingLeft=64;spacingRight=4;overflow=hidden;rotatable=0;points=[[0,0.5],[1,0.5]];portConstraint=eastwest;dropTarget=0;" vertex="1" parent="Exug02o-3mjedRuLKMfW-29">
          <mxGeometry y="52" width="450" height="26" as="geometry" />
        </mxCell>
        <mxCell id="Exug02o-3mjedRuLKMfW-33" value="FK" style="shape=partialRectangle;top=0;left=0;bottom=0;fillColor=none;align=left;verticalAlign=middle;spacingLeft=4;spacingRight=4;overflow=hidden;rotatable=180;points=[];portConstraint=eastwest;part=1;" vertex="1" connectable="0" parent="Exug02o-3mjedRuLKMfW-32">
          <mxGeometry width="54" height="26" as="geometry" />
        </mxCell>
        <mxCell id="Exug02o-3mjedRuLKMfW-34" value="grado" style="swimlane;fontStyle=0;childLayout=stackLayout;horizontal=1;startSize=26;fillColor=default;horizontalStack=0;resizeParent=1;resizeLast=0;collapsible=1;marginBottom=0;swimlaneFillColor=default;align=center;" vertex="1" parent="1">
          <mxGeometry x="100" y="680" width="385" height="78" as="geometry" />
        </mxCell>
        <mxCell id="Exug02o-3mjedRuLKMfW-35" value="id | asignatura(FOREIGNKEY(id_grado )" style="shape=partialRectangle;top=0;left=0;right=0;bottom=0;align=left;verticalAlign=top;spacingTop=-2;fillColor=none;spacingLeft=64;spacingRight=4;overflow=hidden;rotatable=0;points=[[0,0.5],[1,0.5]];portConstraint=eastwest;dropTarget=0;" vertex="1" parent="Exug02o-3mjedRuLKMfW-34">
          <mxGeometry y="26" width="385" height="26" as="geometry" />
        </mxCell>
        <mxCell id="Exug02o-3mjedRuLKMfW-36" value="FK" style="shape=partialRectangle;top=0;left=0;bottom=0;fillColor=none;align=left;verticalAlign=middle;spacingLeft=4;spacingRight=4;overflow=hidden;rotatable=180;points=[];portConstraint=eastwest;part=1;" vertex="1" connectable="0" parent="Exug02o-3mjedRuLKMfW-35">
          <mxGeometry width="54" height="26" as="geometry" />
        </mxCell>
        <mxCell id="Exug02o-3mjedRuLKMfW-37" value="nombre" style="shape=partialRectangle;top=0;left=0;right=0;bottom=0;align=left;verticalAlign=top;spacingTop=-2;fillColor=none;spacingLeft=64;spacingRight=4;overflow=hidden;rotatable=0;points=[[0,0.5],[1,0.5]];portConstraint=eastwest;dropTarget=0;" vertex="1" parent="Exug02o-3mjedRuLKMfW-34">
          <mxGeometry y="52" width="385" height="26" as="geometry" />
        </mxCell>
        <mxCell id="Exug02o-3mjedRuLKMfW-38" value="" style="shape=partialRectangle;top=0;left=0;bottom=0;fillColor=none;align=left;verticalAlign=middle;spacingLeft=4;spacingRight=4;overflow=hidden;rotatable=180;points=[];portConstraint=eastwest;part=1;" vertex="1" connectable="0" parent="Exug02o-3mjedRuLKMfW-37">
          <mxGeometry width="54" height="26" as="geometry" />
        </mxCell>
        <mxCell id="Exug02o-3mjedRuLKMfW-39" value="asignatura" style="swimlane;fontStyle=0;childLayout=stackLayout;horizontal=1;startSize=26;fillColor=default;horizontalStack=0;resizeParent=1;resizeLast=0;collapsible=1;marginBottom=0;swimlaneFillColor=default;align=center;" vertex="1" parent="1">
          <mxGeometry x="740" y="500" width="370" height="234" as="geometry" />
        </mxCell>
        <mxCell id="Exug02o-3mjedRuLKMfW-40" value="id | alumno_se_matricula_asignatura(id_asignatura)" style="shape=partialRectangle;top=0;left=0;right=0;bottom=0;align=left;verticalAlign=top;spacingTop=-2;fillColor=none;spacingLeft=64;spacingRight=4;overflow=hidden;rotatable=0;points=[[0,0.5],[1,0.5]];portConstraint=eastwest;dropTarget=0;" vertex="1" parent="Exug02o-3mjedRuLKMfW-39">
          <mxGeometry y="26" width="370" height="26" as="geometry" />
        </mxCell>
        <mxCell id="Exug02o-3mjedRuLKMfW-41" value="FK" style="shape=partialRectangle;top=0;left=0;bottom=0;fillColor=none;align=left;verticalAlign=middle;spacingLeft=4;spacingRight=4;overflow=hidden;rotatable=180;points=[];portConstraint=eastwest;part=1;" vertex="1" connectable="0" parent="Exug02o-3mjedRuLKMfW-40">
          <mxGeometry width="54" height="26" as="geometry" />
        </mxCell>
        <mxCell id="Exug02o-3mjedRuLKMfW-42" value="nombre" style="shape=partialRectangle;top=0;left=0;right=0;bottom=0;align=left;verticalAlign=top;spacingTop=-2;fillColor=none;spacingLeft=64;spacingRight=4;overflow=hidden;rotatable=0;points=[[0,0.5],[1,0.5]];portConstraint=eastwest;dropTarget=0;" vertex="1" parent="Exug02o-3mjedRuLKMfW-39">
          <mxGeometry y="52" width="370" height="26" as="geometry" />
        </mxCell>
        <mxCell id="Exug02o-3mjedRuLKMfW-43" value="" style="shape=partialRectangle;top=0;left=0;bottom=0;fillColor=none;align=left;verticalAlign=middle;spacingLeft=4;spacingRight=4;overflow=hidden;rotatable=180;points=[];portConstraint=eastwest;part=1;" vertex="1" connectable="0" parent="Exug02o-3mjedRuLKMfW-42">
          <mxGeometry width="54" height="26" as="geometry" />
        </mxCell>
        <mxCell id="Exug02o-3mjedRuLKMfW-44" value="creditos" style="shape=partialRectangle;top=0;left=0;right=0;bottom=0;align=left;verticalAlign=top;spacingTop=-2;fillColor=none;spacingLeft=64;spacingRight=4;overflow=hidden;rotatable=0;points=[[0,0.5],[1,0.5]];portConstraint=eastwest;dropTarget=0;" vertex="1" parent="Exug02o-3mjedRuLKMfW-39">
          <mxGeometry y="78" width="370" height="26" as="geometry" />
        </mxCell>
        <mxCell id="Exug02o-3mjedRuLKMfW-45" value="" style="shape=partialRectangle;top=0;left=0;bottom=0;fillColor=none;align=left;verticalAlign=middle;spacingLeft=4;spacingRight=4;overflow=hidden;rotatable=180;points=[];portConstraint=eastwest;part=1;" vertex="1" connectable="0" parent="Exug02o-3mjedRuLKMfW-44">
          <mxGeometry width="54" height="26" as="geometry" />
        </mxCell>
        <mxCell id="Exug02o-3mjedRuLKMfW-46" value="tipo" style="shape=partialRectangle;top=0;left=0;right=0;bottom=0;align=left;verticalAlign=top;spacingTop=-2;fillColor=none;spacingLeft=64;spacingRight=4;overflow=hidden;rotatable=0;points=[[0,0.5],[1,0.5]];portConstraint=eastwest;dropTarget=0;" vertex="1" parent="Exug02o-3mjedRuLKMfW-39">
          <mxGeometry y="104" width="370" height="26" as="geometry" />
        </mxCell>
        <mxCell id="Exug02o-3mjedRuLKMfW-47" value="" style="shape=partialRectangle;top=0;left=0;bottom=0;fillColor=none;align=left;verticalAlign=middle;spacingLeft=4;spacingRight=4;overflow=hidden;rotatable=180;points=[];portConstraint=eastwest;part=1;" vertex="1" connectable="0" parent="Exug02o-3mjedRuLKMfW-46">
          <mxGeometry width="54" height="26" as="geometry" />
        </mxCell>
        <mxCell id="Exug02o-3mjedRuLKMfW-48" value="curso" style="shape=partialRectangle;top=0;left=0;right=0;bottom=0;align=left;verticalAlign=top;spacingTop=-2;fillColor=none;spacingLeft=64;spacingRight=4;overflow=hidden;rotatable=0;points=[[0,0.5],[1,0.5]];portConstraint=eastwest;dropTarget=0;" vertex="1" parent="Exug02o-3mjedRuLKMfW-39">
          <mxGeometry y="130" width="370" height="26" as="geometry" />
        </mxCell>
        <mxCell id="Exug02o-3mjedRuLKMfW-49" value="" style="shape=partialRectangle;top=0;left=0;bottom=0;fillColor=none;align=left;verticalAlign=middle;spacingLeft=4;spacingRight=4;overflow=hidden;rotatable=180;points=[];portConstraint=eastwest;part=1;" vertex="1" connectable="0" parent="Exug02o-3mjedRuLKMfW-48">
          <mxGeometry width="54" height="26" as="geometry" />
        </mxCell>
        <mxCell id="Exug02o-3mjedRuLKMfW-50" value="cuatrimestre" style="shape=partialRectangle;top=0;left=0;right=0;bottom=0;align=left;verticalAlign=top;spacingTop=-2;fillColor=none;spacingLeft=64;spacingRight=4;overflow=hidden;rotatable=0;points=[[0,0.5],[1,0.5]];portConstraint=eastwest;dropTarget=0;" vertex="1" parent="Exug02o-3mjedRuLKMfW-39">
          <mxGeometry y="156" width="370" height="26" as="geometry" />
        </mxCell>
        <mxCell id="Exug02o-3mjedRuLKMfW-51" value="" style="shape=partialRectangle;top=0;left=0;bottom=0;fillColor=none;align=left;verticalAlign=middle;spacingLeft=4;spacingRight=4;overflow=hidden;rotatable=180;points=[];portConstraint=eastwest;part=1;" vertex="1" connectable="0" parent="Exug02o-3mjedRuLKMfW-50">
          <mxGeometry width="54" height="26" as="geometry" />
        </mxCell>
        <mxCell id="Exug02o-3mjedRuLKMfW-52" value="id_profesor" style="shape=partialRectangle;top=0;left=0;right=0;bottom=0;align=left;verticalAlign=top;spacingTop=-2;fillColor=none;spacingLeft=64;spacingRight=4;overflow=hidden;rotatable=0;points=[[0,0.5],[1,0.5]];portConstraint=eastwest;dropTarget=0;" vertex="1" parent="Exug02o-3mjedRuLKMfW-39">
          <mxGeometry y="182" width="370" height="26" as="geometry" />
        </mxCell>
        <mxCell id="Exug02o-3mjedRuLKMfW-53" value="" style="shape=partialRectangle;top=0;left=0;bottom=0;fillColor=none;align=left;verticalAlign=middle;spacingLeft=4;spacingRight=4;overflow=hidden;rotatable=180;points=[];portConstraint=eastwest;part=1;" vertex="1" connectable="0" parent="Exug02o-3mjedRuLKMfW-52">
          <mxGeometry width="54" height="26" as="geometry" />
        </mxCell>
        <mxCell id="Exug02o-3mjedRuLKMfW-54" value="id_grado" style="shape=partialRectangle;top=0;left=0;right=0;bottom=0;align=left;verticalAlign=top;spacingTop=-2;fillColor=none;spacingLeft=64;spacingRight=4;overflow=hidden;rotatable=0;points=[[0,0.5],[1,0.5]];portConstraint=eastwest;dropTarget=0;" vertex="1" parent="Exug02o-3mjedRuLKMfW-39">
          <mxGeometry y="208" width="370" height="26" as="geometry" />
        </mxCell>
        <mxCell id="Exug02o-3mjedRuLKMfW-55" value="" style="shape=partialRectangle;top=0;left=0;bottom=0;fillColor=none;align=left;verticalAlign=middle;spacingLeft=4;spacingRight=4;overflow=hidden;rotatable=180;points=[];portConstraint=eastwest;part=1;" vertex="1" connectable="0" parent="Exug02o-3mjedRuLKMfW-54">
          <mxGeometry width="54" height="26" as="geometry" />
        </mxCell>
        <mxCell id="Exug02o-3mjedRuLKMfW-56" value="curso_escolar" style="swimlane;fontStyle=0;childLayout=stackLayout;horizontal=1;startSize=26;fillColor=default;horizontalStack=0;resizeParent=1;resizeLast=0;collapsible=1;marginBottom=0;swimlaneFillColor=default;align=center;" vertex="1" parent="1">
          <mxGeometry x="95" y="565" width="390" height="104" as="geometry" />
        </mxCell>
        <mxCell id="Exug02o-3mjedRuLKMfW-57" value="id | alumno_se_matricula_asignatura(id_curso_escolar)" style="shape=partialRectangle;top=0;left=0;right=0;bottom=0;align=left;verticalAlign=top;spacingTop=-2;fillColor=none;spacingLeft=64;spacingRight=4;overflow=hidden;rotatable=0;points=[[0,0.5],[1,0.5]];portConstraint=eastwest;dropTarget=0;" vertex="1" parent="Exug02o-3mjedRuLKMfW-56">
          <mxGeometry y="26" width="390" height="26" as="geometry" />
        </mxCell>
        <mxCell id="Exug02o-3mjedRuLKMfW-58" value="FK" style="shape=partialRectangle;top=0;left=0;bottom=0;fillColor=none;align=left;verticalAlign=middle;spacingLeft=4;spacingRight=4;overflow=hidden;rotatable=180;points=[];portConstraint=eastwest;part=1;" vertex="1" connectable="0" parent="Exug02o-3mjedRuLKMfW-57">
          <mxGeometry width="54" height="26" as="geometry" />
        </mxCell>
        <mxCell id="Exug02o-3mjedRuLKMfW-59" value="anyo_inicio" style="shape=partialRectangle;top=0;left=0;right=0;bottom=0;align=left;verticalAlign=top;spacingTop=-2;fillColor=none;spacingLeft=64;spacingRight=4;overflow=hidden;rotatable=0;points=[[0,0.5],[1,0.5]];portConstraint=eastwest;dropTarget=0;" vertex="1" parent="Exug02o-3mjedRuLKMfW-56">
          <mxGeometry y="52" width="390" height="26" as="geometry" />
        </mxCell>
        <mxCell id="Exug02o-3mjedRuLKMfW-60" value="" style="shape=partialRectangle;top=0;left=0;bottom=0;fillColor=none;align=left;verticalAlign=middle;spacingLeft=4;spacingRight=4;overflow=hidden;rotatable=180;points=[];portConstraint=eastwest;part=1;" vertex="1" connectable="0" parent="Exug02o-3mjedRuLKMfW-59">
          <mxGeometry width="54" height="26" as="geometry" />
        </mxCell>
        <mxCell id="Exug02o-3mjedRuLKMfW-61" value="anyo_fin" style="shape=partialRectangle;top=0;left=0;right=0;bottom=0;align=left;verticalAlign=top;spacingTop=-2;fillColor=none;spacingLeft=64;spacingRight=4;overflow=hidden;rotatable=0;points=[[0,0.5],[1,0.5]];portConstraint=eastwest;dropTarget=0;" vertex="1" parent="Exug02o-3mjedRuLKMfW-56">
          <mxGeometry y="78" width="390" height="26" as="geometry" />
        </mxCell>
        <mxCell id="Exug02o-3mjedRuLKMfW-62" value="" style="shape=partialRectangle;top=0;left=0;bottom=0;fillColor=none;align=left;verticalAlign=middle;spacingLeft=4;spacingRight=4;overflow=hidden;rotatable=180;points=[];portConstraint=eastwest;part=1;" vertex="1" connectable="0" parent="Exug02o-3mjedRuLKMfW-61">
          <mxGeometry width="54" height="26" as="geometry" />
        </mxCell>
        <mxCell id="Exug02o-3mjedRuLKMfW-63" value="alumno_se_matricula_asignatura" style="swimlane;fontStyle=0;childLayout=stackLayout;horizontal=1;startSize=26;fillColor=default;horizontalStack=0;resizeParent=1;resizeLast=0;collapsible=1;marginBottom=0;swimlaneFillColor=default;align=center;" vertex="1" parent="1">
          <mxGeometry x="590" y="118" width="290" height="104" as="geometry" />
        </mxCell>
        <mxCell id="Exug02o-3mjedRuLKMfW-64" value="id_alumno | persona(id)" style="shape=partialRectangle;top=0;left=0;right=0;bottom=0;align=left;verticalAlign=top;spacingTop=-2;fillColor=none;spacingLeft=64;spacingRight=4;overflow=hidden;rotatable=0;points=[[0,0.5],[1,0.5]];portConstraint=eastwest;dropTarget=0;" vertex="1" parent="Exug02o-3mjedRuLKMfW-63">
          <mxGeometry y="26" width="290" height="26" as="geometry" />
        </mxCell>
        <mxCell id="Exug02o-3mjedRuLKMfW-65" value="FK" style="shape=partialRectangle;top=0;left=0;bottom=0;fillColor=none;align=left;verticalAlign=middle;spacingLeft=4;spacingRight=4;overflow=hidden;rotatable=180;points=[];portConstraint=eastwest;part=1;" vertex="1" connectable="0" parent="Exug02o-3mjedRuLKMfW-64">
          <mxGeometry width="54" height="26" as="geometry" />
        </mxCell>
        <mxCell id="Exug02o-3mjedRuLKMfW-66" value="id_asignatura | asignatura(id)" style="shape=partialRectangle;top=0;left=0;right=0;bottom=0;align=left;verticalAlign=top;spacingTop=-2;fillColor=none;spacingLeft=64;spacingRight=4;overflow=hidden;rotatable=0;points=[[0,0.5],[1,0.5]];portConstraint=eastwest;dropTarget=0;" vertex="1" parent="Exug02o-3mjedRuLKMfW-63">
          <mxGeometry y="52" width="290" height="26" as="geometry" />
        </mxCell>
        <mxCell id="Exug02o-3mjedRuLKMfW-67" value="FK" style="shape=partialRectangle;top=0;left=0;bottom=0;fillColor=none;align=left;verticalAlign=middle;spacingLeft=4;spacingRight=4;overflow=hidden;rotatable=180;points=[];portConstraint=eastwest;part=1;" vertex="1" connectable="0" parent="Exug02o-3mjedRuLKMfW-66">
          <mxGeometry width="54" height="26" as="geometry" />
        </mxCell>
        <mxCell id="Exug02o-3mjedRuLKMfW-68" value="id_curso_escolar | curso_escolar(id)" style="shape=partialRectangle;top=0;left=0;right=0;bottom=0;align=left;verticalAlign=top;spacingTop=-2;fillColor=none;spacingLeft=64;spacingRight=4;overflow=hidden;rotatable=0;points=[[0,0.5],[1,0.5]];portConstraint=eastwest;dropTarget=0;" vertex="1" parent="Exug02o-3mjedRuLKMfW-63">
          <mxGeometry y="78" width="290" height="26" as="geometry" />
        </mxCell>
        <mxCell id="Exug02o-3mjedRuLKMfW-69" value="FK" style="shape=partialRectangle;top=0;left=0;bottom=0;fillColor=none;align=left;verticalAlign=middle;spacingLeft=4;spacingRight=4;overflow=hidden;rotatable=180;points=[];portConstraint=eastwest;part=1;" vertex="1" connectable="0" parent="Exug02o-3mjedRuLKMfW-68">
          <mxGeometry width="54" height="26" as="geometry" />
        </mxCell>
        <mxCell id="Exug02o-3mjedRuLKMfW-70" value="" style="edgeStyle=orthogonalEdgeStyle;rounded=0;orthogonalLoop=1;jettySize=auto;html=1;entryX=0;entryY=0.5;entryDx=0;entryDy=0;" edge="1" parent="1" source="Exug02o-3mjedRuLKMfW-7" target="Exug02o-3mjedRuLKMfW-30">
          <mxGeometry relative="1" as="geometry" />
        </mxCell>
        <mxCell id="Exug02o-3mjedRuLKMfW-71" style="edgeStyle=orthogonalEdgeStyle;rounded=0;orthogonalLoop=1;jettySize=auto;html=1;exitX=1;exitY=0.5;exitDx=0;exitDy=0;entryX=0;entryY=0.5;entryDx=0;entryDy=0;" edge="1" parent="1" source="Exug02o-3mjedRuLKMfW-7" target="Exug02o-3mjedRuLKMfW-64">
          <mxGeometry relative="1" as="geometry" />
        </mxCell>
        <mxCell id="Exug02o-3mjedRuLKMfW-72" style="edgeStyle=orthogonalEdgeStyle;rounded=0;orthogonalLoop=1;jettySize=auto;html=1;" edge="1" parent="1" source="Exug02o-3mjedRuLKMfW-40" target="Exug02o-3mjedRuLKMfW-66">
          <mxGeometry relative="1" as="geometry" />
        </mxCell>
        <mxCell id="Exug02o-3mjedRuLKMfW-73" style="edgeStyle=orthogonalEdgeStyle;rounded=0;orthogonalLoop=1;jettySize=auto;html=1;" edge="1" parent="1" source="Exug02o-3mjedRuLKMfW-57" target="Exug02o-3mjedRuLKMfW-68">
          <mxGeometry relative="1" as="geometry" />
        </mxCell>
        <mxCell id="Exug02o-3mjedRuLKMfW-76" style="edgeStyle=orthogonalEdgeStyle;rounded=0;orthogonalLoop=1;jettySize=auto;html=1;exitX=1;exitY=0.5;exitDx=0;exitDy=0;" edge="1" parent="1" source="Exug02o-3mjedRuLKMfW-2" target="Exug02o-3mjedRuLKMfW-32">
          <mxGeometry relative="1" as="geometry" />
        </mxCell>
        <mxCell id="Exug02o-3mjedRuLKMfW-77" style="edgeStyle=orthogonalEdgeStyle;rounded=0;orthogonalLoop=1;jettySize=auto;html=1;exitX=1;exitY=0.5;exitDx=0;exitDy=0;" edge="1" parent="1" source="Exug02o-3mjedRuLKMfW-35" target="Exug02o-3mjedRuLKMfW-54">
          <mxGeometry relative="1" as="geometry" />
        </mxCell>
        <mxCell id="Exug02o-3mjedRuLKMfW-78" style="edgeStyle=orthogonalEdgeStyle;rounded=0;orthogonalLoop=1;jettySize=auto;html=1;exitX=1;exitY=0.5;exitDx=0;exitDy=0;entryX=0;entryY=0.5;entryDx=0;entryDy=0;" edge="1" parent="1" source="Exug02o-3mjedRuLKMfW-30" target="Exug02o-3mjedRuLKMfW-52">
          <mxGeometry relative="1" as="geometry" />
        </mxCell>
      </root>
    </mxGraphModel>
  </diagram>
</mxfile>
